<?xml version="1.0" encoding="UTF-8"?>
<svg id="Layer_1" xmlns="http://www.w3.org/2000/svg" viewBox="0 0 56.31 56">
  <defs>
    <style>
      .cls-1 {
        fill: #f8991d;
        fill-rule: evenodd;
      }

      .cls-2 {
        fill: #fff;
      }

      .cls-3 {
        fill: #262f3e;
      }
    </style>
  </defs>
  <path class="cls-2" d="M0,28C0,16.76,0,11.15,2.7,7.11c1.17-1.75,2.67-3.25,4.41-4.41C11.15,0,16.82,0,28.16,0s17.01,0,21.05,2.7c1.75,1.17,3.25,2.67,4.41,4.41,2.7,4.04,2.7,9.65,2.7,20.89s0,16.85-2.7,20.89c-1.17,1.75-2.67,3.25-4.41,4.41-4.04,2.7-9.71,2.7-21.05,2.7s-17.01,0-21.05-2.7c-1.75-1.17-3.25-2.67-4.41-4.41C0,44.85,0,39.24,0,28Z"/>
  <path class="cls-3" d="M38.83,28.42c-.54,0-1.08-.06-1.6-.19-.52-.12-.93-.26-1.2-.41-.17-.09-.28-.2-.32-.29-.04-.09-.06-.2-.06-.29v-.53c0-.22.08-.32.24-.32.06,0,.12.01.19.03s.16.06.26.1c.35.16.74.28,1.14.36.42.08.82.12,1.24.12.66,0,1.17-.11,1.52-.34.35-.23.54-.56.54-.98,0-.29-.09-.53-.28-.72s-.54-.37-1.05-.54l-1.51-.47c-.76-.24-1.32-.59-1.66-1.06-.34-.46-.52-.96-.52-1.5,0-.43.09-.82.28-1.15.19-.33.44-.62.75-.85.31-.24.67-.41,1.08-.54.42-.12.85-.18,1.31-.18.23,0,.47.01.7.04.24.03.46.07.68.11.21.05.41.1.59.17s.33.12.44.19c.15.08.25.17.31.26.06.08.09.2.09.34v.49c0,.22-.08.33-.24.33-.08,0-.22-.04-.4-.12-.59-.27-1.26-.4-2-.4-.59,0-1.06.09-1.38.29-.32.2-.49.5-.49.92,0,.29.1.54.31.73.21.2.59.39,1.14.57l1.48.47c.75.24,1.29.57,1.61.99.32.42.48.91.48,1.45,0,.44-.09.85-.27,1.2-.19.35-.44.66-.76.91-.32.26-.71.44-1.15.58-.47.14-.96.22-1.49.22ZM25.46,28.14c-.19,0-.31-.03-.4-.1-.08-.06-.16-.21-.22-.4l-2.45-8c-.06-.21-.09-.34-.09-.41,0-.17.08-.26.25-.26h1.02c.2,0,.33.03.41.1.08.06.15.21.21.4l1.75,6.85,1.62-6.85c.05-.21.11-.34.2-.4.08-.06.23-.1.42-.1h.83c.2,0,.33.03.42.1.08.06.16.21.2.4l1.64,6.93,1.8-6.93c.06-.21.14-.34.21-.4.08-.06.22-.1.41-.1h.97c.17,0,.26.08.26.26,0,.05-.01.1-.02.17s-.03.14-.07.26l-2.51,8c-.06.21-.14.34-.22.4-.08.06-.22.1-.4.1h-.89c-.2,0-.33-.03-.42-.1-.08-.07-.16-.21-.2-.41l-1.61-6.67-1.6,6.66c-.05.21-.11.34-.2.41-.08.07-.23.1-.42.1h-.89ZM17.11,27.03c.34,0,.7-.06,1.07-.19s.71-.35.99-.66c.17-.2.29-.41.35-.66.06-.25.1-.55.1-.9v-.43c-.3-.07-.62-.13-.96-.18-.33-.04-.66-.06-.98-.06-.7,0-1.21.13-1.55.41-.34.28-.51.67-.51,1.19,0,.49.12.85.38,1.1.25.26.61.38,1.09.38ZM21.33,25.45c0,.38.04.69.11.92.08.23.19.48.33.74.05.08.07.17.07.24,0,.1-.06.21-.2.31l-.66.43c-.09.06-.19.09-.27.09-.1,0-.21-.05-.31-.14-.15-.16-.27-.32-.37-.49-.1-.18-.21-.37-.32-.61-.81.95-1.83,1.43-3.06,1.43-.87,0-1.57-.25-2.08-.74-.51-.5-.77-1.16-.77-1.99,0-.88.31-1.59.95-2.13.63-.54,1.48-.81,2.55-.81.35,0,.72.03,1.1.08s.78.13,1.2.23v-.76c0-.79-.17-1.33-.49-1.66-.33-.32-.89-.48-1.7-.48-.36,0-.74.04-1.12.13-.39.09-.76.21-1.12.35-.17.07-.29.11-.36.13-.07.02-.12.03-.17.03-.15,0-.22-.1-.22-.32v-.51c0-.17.02-.29.07-.36.05-.07.15-.14.29-.22.36-.19.8-.34,1.31-.47.51-.13,1.05-.2,1.62-.2,1.24,0,2.14.28,2.73.84.57.56.86,1.41.86,2.55v3.35h.02Z"/>
  <path class="cls-1" d="M40.8,33.45c-3.42,2.51-8.4,3.85-12.67,3.85-5.99,0-11.39-2.2-15.47-5.87-.32-.29-.03-.68.35-.46,4.41,2.55,9.85,4.09,15.48,4.09,3.8,0,7.97-.79,11.81-2.4.57-.26,1.06.37.5.79Z"/>
  <path class="cls-1" d="M42.22,31.84c-.44-.56-2.89-.27-4.01-.13-.33.04-.38-.25-.08-.47,1.96-1.37,5.17-.97,5.55-.52.37.47-.1,3.66-1.94,5.19-.28.24-.55.11-.43-.2.42-1.02,1.34-3.33.91-3.88Z"/>
</svg>