<?xml version="1.0" encoding="UTF-8"?>
<svg id="Layer_1" xmlns="http://www.w3.org/2000/svg" viewBox="0 0 56 56">
  <defs>
    <style>
      .cls-1 {
        fill: #f37264;
      }

      .cls-2 {
        fill: #8162aa;
      }

      .cls-3 {
        fill: #47b8e9;
      }

      .cls-4 {
        fill: #fff;
      }

      .cls-5 {
        fill: #48ba7f;
      }

      .cls-6 {
        fill: #f05023;
      }
    </style>
  </defs>
  <path class="cls-4" d="M0,28C0,16.76,0,11.15,2.7,7.11c1.17-1.75,2.67-3.25,4.41-4.41C11.15,0,16.76,0,28,0s16.85,0,20.89,2.7c1.75,1.17,3.25,2.67,4.41,4.41,2.7,4.04,2.7,9.65,2.7,20.89s0,16.85-2.7,20.89c-1.17,1.75-2.67,3.25-4.41,4.41-4.04,2.7-9.65,2.7-20.89,2.7s-16.85,0-20.89-2.7c-1.75-1.17-3.25-2.67-4.41-4.41C0,44.85,0,39.24,0,28Z"/>
  <path class="cls-5" d="M22.81,43.56c2.86,0,5.19-2.32,5.19-5.19v-5.19h-5.19c-2.86,0-5.19,2.32-5.19,5.19s2.32,5.19,5.19,5.19Z"/>
  <path class="cls-2" d="M17.63,28c0-2.86,2.32-5.19,5.19-5.19h5.19v10.37h-5.19c-2.86,0-5.19-2.32-5.19-5.19Z"/>
  <path class="cls-6" d="M17.63,17.63c0-2.86,2.32-5.19,5.19-5.19h5.19v10.37h-5.19c-2.86,0-5.19-2.32-5.19-5.19Z"/>
  <path class="cls-1" d="M28,12.44h5.19c2.86,0,5.19,2.32,5.19,5.19s-2.32,5.19-5.19,5.19h-5.19v-10.37Z"/>
  <circle class="cls-3" cx="33.19" cy="28" r="5.19"/>
</svg>