<?xml version="1.0" encoding="UTF-8"?>
<svg id="Layer_1" xmlns="http://www.w3.org/2000/svg" viewBox="0 0 56.31 56">
  <defs>
    <style>
      .cls-1 {
        fill: #de4c36;
      }

      .cls-2 {
        fill: #fff;
      }
    </style>
  </defs>
  <path class="cls-2" d="M1.33,28c0-11.24,0-16.85,2.7-20.89,1.17-1.75,2.67-3.25,4.41-4.41C12.48,0,18.15,0,29.49,0s17.01,0,21.05,2.7c1.75,1.17,3.25,2.67,4.41,4.41,2.7,4.04,2.7,9.65,2.7,20.89s0,16.85-2.7,20.89c-1.17,1.75-2.67,3.25-4.41,4.41-4.04,2.7-9.71,2.7-21.05,2.7s-17.01,0-21.05-2.7c-1.75-1.17-3.25-2.67-4.41-4.41-2.7-4.04-2.7-9.65-2.7-20.89Z"/>
  <path class="cls-1" d="M44.54,26.61l-13.66-13.58c-.79-.78-2.06-.78-2.85,0l-2.84,2.82,3.6,3.58c.84-.28,1.79-.09,2.46.57.67.67.86,1.63.57,2.46l3.47,3.45c.84-.29,1.81-.1,2.48.57.94.93.94,2.44,0,3.37-.94.93-2.45.93-3.39,0-.7-.7-.88-1.73-.52-2.59l-3.23-3.22v8.46c.23.12.45.27.63.45.94.93.94,2.44,0,3.37-.94.93-2.45.93-3.39,0-.94-.93-.94-2.44,0-3.37.22-.22.49-.4.78-.52v-8.54c-.29-.12-.56-.3-.78-.52-.71-.7-.88-1.74-.52-2.61l-3.55-3.53-9.37,9.31c-.79.78-.79,2.05,0,2.83l13.66,13.58c.79.78,2.06.78,2.85,0l13.6-13.52c.79-.78.79-2.05,0-2.83"/>
</svg>