<?xml version="1.0" encoding="UTF-8"?>
<svg id="Layer_1" xmlns="http://www.w3.org/2000/svg" viewBox="0 0 56.31 56">
  <defs>
    <style>
      .cls-1 {
        fill: #181816;
      }

      .cls-2 {
        fill: #fff;
      }
    </style>
  </defs>
  <path class="cls-2" d="M1.33,28c0-11.24,0-16.85,2.7-20.89,1.17-1.75,2.67-3.25,4.41-4.41C12.48,0,18.15,0,29.49,0s17.01,0,21.05,2.7c1.75,1.17,3.25,2.67,4.41,4.41,2.7,4.04,2.7,9.65,2.7,20.89s0,16.85-2.7,20.89c-1.17,1.75-2.67,3.25-4.41,4.41-4.04,2.7-9.71,2.7-21.05,2.7s-17.01,0-21.05-2.7c-1.75-1.17-3.25-2.67-4.41-4.41-2.7-4.04-2.7-9.65-2.7-20.89Z"/>
  <path class="cls-1" d="M29.49,12.83c-8.64,0-15.64,6.96-15.64,15.56,0,6.87,4.48,12.7,10.7,14.76.78.14,1.07-.34,1.07-.75,0-.37-.01-1.6-.02-2.9-4.35.94-5.27-1.84-5.27-1.84-.71-1.8-1.74-2.28-1.74-2.28-1.42-.97.11-.95.11-.95,1.57.11,2.4,1.6,2.4,1.6,1.4,2.38,3.66,1.69,4.55,1.29.14-1.01.55-1.69.99-2.08-3.47-.39-7.13-1.73-7.13-7.69,0-1.7.61-3.09,1.61-4.18-.16-.39-.7-1.97.15-4.12,0,0,1.31-.42,4.3,1.59,1.25-.34,2.59-.52,3.92-.52,1.33,0,2.67.18,3.92.52,2.99-2.01,4.3-1.59,4.3-1.59.85,2.14.32,3.72.15,4.12,1,1.09,1.61,2.48,1.61,4.18,0,5.97-3.66,7.29-7.14,7.68.56.48,1.06,1.43,1.06,2.88,0,2.08-.02,3.76-.02,4.27,0,.41.28.9,1.07.75,6.21-2.06,10.69-7.89,10.69-14.76,0-8.59-7-15.56-15.64-15.56Z"/>
  <path class="cls-1" d="M25.65,37.99c.02.13-.11.25-.29.29-.18.03-.35-.04-.37-.17-.02-.13.11-.26.29-.29.18-.03.35.04.37.17M24.36,38.04c0,.13-.15.23-.33.24-.19,0-.34-.1-.34-.23,0-.13.15-.23.33-.24.19,0,.34.1.34.23ZM23.05,37.9c-.04.12-.21.18-.39.13-.18-.05-.29-.2-.26-.32.04-.12.21-.18.39-.12.18.05.29.19.26.32h0ZM21.9,37.56c-.09.09-.27.07-.4-.06-.14-.13-.17-.3-.09-.4.09-.09.27-.07.41.06.14.13.18.3.09.4h0ZM21,36.54c-.1.07-.25,0-.35-.13-.1-.14-.1-.3,0-.37.1-.07.25,0,.35.13.1.14.1.31,0,.37h0ZM20.48,35.67c-.07.07-.22.04-.32-.07-.1-.11-.12-.25-.05-.32.08-.07.22-.04.32.07.1.11.12.25.04.32h0ZM19.71,34.99c-.03.08-.16.1-.27.05-.11-.05-.18-.16-.14-.23.03-.08.16-.1.27-.05.11.05.18.16.14.23Z"/>
</svg>