<?xml version="1.0" encoding="UTF-8"?>
<svg id="Layer_1" xmlns="http://www.w3.org/2000/svg" viewBox="0 0 56.31 56">
  <defs>
    <style>
      .cls-1 {
        fill: #f6df19;
      }

      .cls-2 {
        fill: #010101;
      }

      .cls-3 {
        fill: #fff;
      }
    </style>
  </defs>
  <path class="cls-3" d="M0,28C0,16.76,0,11.15,2.7,7.11c1.17-1.75,2.67-3.25,4.41-4.41C11.15,0,16.82,0,28.16,0s17.01,0,21.05,2.7c1.75,1.17,3.25,2.67,4.41,4.41,2.7,4.04,2.7,9.65,2.7,20.89s0,16.85-2.7,20.89c-1.17,1.75-2.67,3.25-4.41,4.41-4.04,2.7-9.71,2.7-21.05,2.7s-17.01,0-21.05-2.7c-1.75-1.17-3.25-2.67-4.41-4.41C0,44.85,0,39.24,0,28Z"/>
  <rect class="cls-1" x="12.51" y="12.44" width="31.28" height="31.11"/>
  <path class="cls-2" d="M23.14,37c.46.81.88,1.5,1.89,1.5s1.58-.38,1.58-1.84v-9.94h2.94v9.98c0,3.03-1.78,4.41-4.39,4.41-2.35,0-3.72-1.21-4.41-2.67l2.39-1.44ZM33.53,36.75c.63,1.02,1.45,1.78,2.9,1.78,1.22,0,2-.61,2-1.44,0-1-.8-1.36-2.14-1.94l-.73-.31c-2.12-.9-3.53-2.02-3.53-4.4,0-2.19,1.68-3.86,4.31-3.86,1.87,0,3.21.65,4.18,2.34l-2.29,1.46c-.5-.9-1.05-1.25-1.89-1.25s-1.41.54-1.41,1.25c0,.88.55,1.23,1.81,1.78l.73.31c2.5,1.07,3.91,2.15,3.91,4.59,0,2.63-2.08,4.07-4.87,4.07s-4.49-1.29-5.36-2.99l2.39-1.38Z"/>
</svg>