<?xml version="1.0" encoding="UTF-8"?>
<svg id="Layer_1" xmlns="http://www.w3.org/2000/svg" viewBox="0 0 56 56">
  <defs>
    <style>
      .cls-1 {
        fill: #5482a2;
      }

      .cls-2 {
        fill: #fff;
      }

      .cls-3 {
        fill: #e67125;
      }
    </style>
  </defs>
  <path class="cls-2" d="M0,28C0,16.76,0,11.15,2.7,7.11c1.17-1.75,2.67-3.25,4.41-4.41C11.15,0,16.76,0,28,0s16.85,0,20.89,2.7c1.75,1.17,3.25,2.67,4.41,4.41,2.7,4.04,2.7,9.65,2.7,20.89s0,16.85-2.7,20.89c-1.17,1.75-2.67,3.25-4.41,4.41-4.04,2.7-9.65,2.7-20.89,2.7s-16.85,0-20.89-2.7c-1.75-1.17-3.25-2.67-4.41-4.41C0,44.85,0,39.24,0,28Z"/>
  <path class="cls-1" d="M23.17,33.1s-1.33.99.7,1.2c2.63.27,4.71.29,8.31-.4,0,0,.5.5,1.28.78-7.36,2.15-15.57.17-10.3-1.58M23.92,36.5s-1.19.69.85.93c2.47.28,3.73.24,6.44-.27,0,0,.71.45,1.71.84-6.09,2.61-13.78-.15-9-1.49Z"/>
  <path class="cls-3" d="M29.45,27.32c1.5,1.73-.39,3.28-.39,3.28,0,0,3.81-1.97,2.06-4.43-1.63-2.3-2.89-3.44,3.9-7.37,0,0-10.65,2.66-5.56,8.52"/>
  <path class="cls-1" d="M34.63,35.24c5.84-3.03,3.14-5.95,1.25-5.56-.46.1-.67.18-.67.18,0,0,.17-.27.5-.38,3.73-1.31,6.59,3.86-1.2,5.91,0,0,.09-.08.12-.15M24.49,29.57s-5.65,1.34-2,1.83c1.54.21,4.62.16,7.48-.08,2.34-.2,4.69-.62,4.69-.62,0,0-.83.35-1.42.76-5.74,1.51-16.83.81-13.64-.74,2.7-1.31,4.9-1.16,4.9-1.16h0ZM37.5,39.02s.88.72-.97,1.29c-3.52,1.07-14.63,1.39-17.72.04-1.11-.48.97-1.15,1.63-1.29.68-.15,1.07-.12,1.07-.12-1.23-.87-7.98,1.71-3.43,2.45,12.42,2.01,22.64-.91,19.41-2.36Z"/>
  <path class="cls-3" d="M31.11,12.44s3.23,3.23-3.07,8.21c-5.05,3.99-1.15,6.26,0,8.86-2.95-2.66-5.11-5-3.66-7.18,2.13-3.2,8.03-4.75,6.73-9.89"/>
  <path class="cls-1" d="M25.06,43.46c5.6.36,14.21-.2,14.41-2.85,0,0-.39,1.01-4.63,1.8-4.78.9-10.68.79-14.18.22,0,0,.72.59,4.4.83"/>
</svg>