<?xml version="1.0" encoding="UTF-8"?>
<svg id="Layer_1" xmlns="http://www.w3.org/2000/svg" viewBox="0 0 56.31 56">
  <defs>
    <style>
      .cls-1 {
        fill: #599642;
      }

      .cls-2 {
        fill: #6dac46;
      }

      .cls-3 {
        fill: #fff;
      }

      .cls-4 {
        fill: #c3bfbf;
      }
    </style>
  </defs>
  <path class="cls-3" d="M0,28C0,16.76,0,11.15,2.7,7.11c1.17-1.75,2.67-3.25,4.41-4.41C11.15,0,16.82,0,28.16,0s17.01,0,21.05,2.7c1.75,1.17,3.25,2.67,4.41,4.41,2.7,4.04,2.7,9.65,2.7,20.89s0,16.85-2.7,20.89c-1.17,1.75-2.67,3.25-4.41,4.41-4.04,2.7-9.71,2.7-21.05,2.7s-17.01,0-21.05-2.7c-1.75-1.17-3.25-2.67-4.41-4.41C0,44.85,0,39.24,0,28Z"/>
  <path class="cls-1" d="M28.06,12.53l.83,1.56c.19.29.39.54.63.78.7.69,1.36,1.43,1.96,2.2,1.41,1.85,2.37,3.9,3.05,6.12.41,1.36.63,2.75.65,4.15.07,4.2-1.38,7.81-4.3,10.81-.48.48-.99.91-1.53,1.3-.29,0-.43-.22-.55-.42-.22-.38-.36-.79-.43-1.22-.1-.51-.17-1.02-.14-1.54v-.24c-.02-.05-.28-23.38-.18-23.5Z"/>
  <path class="cls-2" d="M28.06,12.48c-.03-.07-.07-.02-.1.02.02.34-.1.64-.29.93-.21.29-.48.51-.75.75-1.52,1.3-2.71,2.88-3.66,4.64-1.27,2.37-1.93,4.91-2.11,7.59-.09.97.31,4.37.61,5.35.83,2.61,2.33,4.8,4.28,6.69.48.46.99.88,1.52,1.29.15,0,.17-.14.21-.24.07-.22.12-.44.15-.66l.34-2.54-.19-23.83Z"/>
  <path class="cls-4" d="M28.89,40.49c.03-.39.22-.71.43-1.03-.21-.08-.36-.25-.48-.44-.1-.18-.19-.36-.25-.56-.24-.71-.29-1.46-.36-2.19v-.44c-.09.07-.1.64-.1.73-.05.77-.15,1.53-.31,2.29-.05.31-.09.61-.27.88,0,.03,0,.07.02.12.31.9.39,1.81.44,2.75v.34c0,.41-.02.32.32.46.14.05.29.07.43.17.1,0,.12-.08.12-.15l-.05-.56v-1.56c-.02-.27.03-.54.07-.8h0Z"/>
</svg>