<?xml version="1.0" encoding="UTF-8"?>
<svg id="Layer_1" data-name="Layer 1" xmlns="http://www.w3.org/2000/svg" viewBox="0 0 56.31 56">
  <defs>
    <style>
      .cls-1 {
        fill: #fff;
      }

      .cls-2 {
        fill: #e49026;
      }

      .cls-3 {
        fill: #00638e;
      }
    </style>
  </defs>
  <path class="cls-1" d="M0,28C0,16.76,0,11.15,2.7,7.11c1.17-1.75,2.67-3.25,4.41-4.41C11.15,0,16.82,0,28.16,0s17.01,0,21.05,2.7c1.75,1.17,3.25,2.67,4.41,4.41,2.7,4.04,2.7,9.65,2.7,20.89s0,16.85-2.7,20.89c-1.17,1.75-2.67,3.25-4.41,4.41-4.04,2.7-9.71,2.7-21.05,2.7s-17.01,0-21.05-2.7c-1.75-1.17-3.25-2.67-4.41-4.41C0,44.85,0,39.24,0,28Z"/>
  <g>
    <path class="cls-3" d="M25.22,39.5v3.97c0,.54-.5.9-.97,1.03l-.48.11h-3.8v-.74h3.63s.24-.08.27-.09c.33-.17.2-.45.21-.75h-2.55c-.49-.05-1.16-.19-1.46-.62-.03-.05-.14-.24-.14-.29v-2.63h1.07s.04.04.04.04v2.53s.09.13.11.15c.06.05.3.15.38.15h2.57v-2.88h1.11Z"/>
    <path class="cls-3" d="M44.75,39.44c-.07.06-.61-.47-.69-.54-.59-.47-1.23-.91-1.9-1.24-1.33-.66-2.72-1.25-3.63-2.5-.24-.32-.38-.65-.55-1.01,0-.36.45-.37.69-.46,1.12-.4,1.97-.57,3.18-.59.17-.04.43.06.58.03.08-.02.08-.06.05-.13-.08-.21-.68-.6-.88-.74-.74-.5-1.56-1.13-2.32-1.56-.84-.47-1.81-.65-2.7-1-.64-.25-.78-.5-1.12-1.07-.46-.79-.8-1.7-1.19-2.53-.28-.61-.6-1.21-.87-1.82-.34-.77-.58-1.53-.99-2.28-1.64-2.97-4.6-5.93-7.77-7.22-.91-.37-1.65-.42-2.62-.5-.17-.01-.35.02-.51-.01-.27-.06-.57-.41-.79-.58-.54-.41-2-1.16-2.65-1.28-.41-.08-.88-.03-.96.46-.06.36.27.9.47,1.19.5.73,1.14,1.39,1.57,2.17.85,1.55.95,3.64,2.14,5.04.23.27.54.45.64.83.15.59-.5,1.86-.65,2.51-.36,1.58-.23,4.21.74,5.58.12.17.41.45.62.47.19.01.13-.26.15-.38.1-.77.17-1.66.43-2.39.19-.54.48-.84.81-1.27.12-.16.19-.4.34-.07.07.16.1.37.17.54.61,1.63,1.66,3.51,2.67,4.93.51.72,1.07,1.43,1.78,1.96,0,.02.01.05-.01.05-.25.02-.94-.78-1.15-.96-.68-.6-1.35-1.08-1.97-1.78-.67-.76-1.02-1.52-1.46-2.42-.04-.08-.04-.22-.12-.14-.06.06-.03.14-.04.22-.12.52-.15.97-.23,1.48-.27,1.57-1.55,1.67-2.46.51-1.34-1.69-1.51-4.49-1.03-6.52.11-.46.24-1.03.37-1.48.1-.34.33-.46.07-.8-.07-.09-.18-.14-.24-.21-.81-.92-1.43-2.74-1.82-3.91-.1-.3-.16-.63-.27-.92-.16-.44-.49-.88-.77-1.26-.78-1.07-2.28-2.45-1.31-3.85.91-1.32,3.17-.27,4.23.36.4.24.66.52,1.02.76.22.15.25.09.49.12.69.08,1.24.07,1.92.24,1.41.35,2.47,1.02,3.65,1.84,2.43,1.69,4.98,4.4,6.15,7.15.79,1.86,1.57,3.74,2.52,5.52.41.76.47.6,1.19.92,1.01.45,1.86.86,2.77,1.5,1.09.76,2.51,1.81,3.25,2.9.03.04.07.09.07.14.02.17-.06.13-.16.15-.46.14-.93.29-1.41.36-.2.03-.45.03-.66.05-.63.09-1.23.32-1.85.44-.04,0-.1-.05-.09.02.11.63,1.8,1.46,2.33,1.84,1.01.72,1.8,1.7,2.6,2.63l.19.45Z"/>
    <path class="cls-3" d="M19.02,38.64v4.42h-1.11v-4.35c-.06.06-.1.17-.14.25-.52,1.13-.98,2.29-1.52,3.41-.24.5-.39.75-.99.78-.39.02-.79-.07-1-.43-.65-1.26-1.13-2.67-1.77-3.93-.02-.03-.02-.07-.07-.08v4.35h-1.08v-4.61c.04-.32.34-.47.62-.54.66-.17,1.22-.08,1.55.56l1.61,3.77.06-.03c.57-1.18,1.03-2.45,1.61-3.62.15-.31.28-.54.62-.67.43-.16,1.41-.07,1.57.45.01.05.05.23.05.27Z"/>
    <path class="cls-2" d="M36.57,42.86c.34-.18.59-.39.63-.79.1-.95-.07-2.06,0-3.03-.1-.85-1.04-1.06-1.75-1.1-.61-.03-1.4-.03-2.01,0-.67.04-1.65.26-1.73,1.07-.09.95.07,2.06,0,3.03.15,1.25,2.24,1.07,3.13,1.05.19,0,.41-.04.6-.05.33.25.62.55.93.82h1.25l-1.06-.99ZM36.17,41.83c-.02.18-.13.35-.3.41l-.77-.71h-1.28l.87.82h-1.23s-.18-.06-.22-.07c-.2-.09-.31-.25-.35-.47v-2.66c.05-.17.15-.28.31-.35.35-.16,1.75-.14,2.19-.11.33.02.75.13.78.51-.06.85.07,1.8,0,2.64Z"/>
    <path class="cls-2" d="M27.17,39.14c-.05.55,0,.96.62,1.02.83.07,2.59-.23,3.1.65.17.29.16,1.24.01,1.53-.18.35-.9.72-1.28.72h-3.55v-.71h3.1c.09,0,.31-.05.39-.08.09-.04.25-.16.29-.24.03-.08.04-.71.02-.83-.04-.3-.54-.36-.78-.38-.84-.06-2.21.19-2.82-.56-.23-.28-.21-.95-.17-1.3.06-.63.68-.89,1.23-.99,1.23-.06,2.47-.01,3.7-.03v.74h-3.26c-.35.05-.55.07-.59.46Z"/>
    <path class="cls-2" d="M42.82,42.35v.71h-3.23c-.62-.02-1.67-.36-1.67-1.12v-4h1.11v4c0,.15.24.31.37.34.08.02.31.07.38.07h3.05Z"/>
    <path class="cls-3" d="M23.45,17.44c-.03.19-.23.55-.44.57-.14-.27-.25-.64-.41-.89-.07-.12-.69-.76-.62-.85.08,0,.14-.04.22-.05.09-.01.45-.03.52-.01.12.04.51.39.58.5.16.26.2.43.15.73Z"/>
    <path class="cls-2" d="M44,41.51c-.95.14-.84,1.68.2,1.63,1.09-.05,1.02-1.81-.2-1.63ZM43.66,42.71c-.28-.38-.08-.98.4-1.05.55-.08.91.48.67.96-.2.41-.8.45-1.07.09Z"/>
    <path class="cls-2" d="M44.53,42.02c-.02-.1-.15-.16-.24-.18-.13-.02-.3.01-.44,0v.92h.13v-.4c.32-.07.24.47.55.4l-.24-.38c.18-.09.29-.13.23-.36ZM43.98,42.24v-.26c.54-.08.55.35,0,.26Z"/>
  </g>
</svg>