<?xml version="1.0" encoding="UTF-8"?>
<svg id="Layer_1" xmlns="http://www.w3.org/2000/svg" viewBox="0 0 56 56">
  <defs>
    <style>
      .cls-1 {
        fill: #010101;
      }

      .cls-2 {
        fill: #fff;
      }
    </style>
  </defs>
  <path class="cls-2" d="M0,28C0,16.76,0,11.15,2.7,7.11c1.17-1.75,2.67-3.25,4.41-4.41C11.15,0,16.76,0,28,0s16.85,0,20.89,2.7c1.75,1.17,3.25,2.67,4.41,4.41,2.7,4.04,2.7,9.65,2.7,20.89s0,16.85-2.7,20.89c-1.17,1.75-2.67,3.25-4.41,4.41-4.04,2.7-9.65,2.7-20.89,2.7s-16.85,0-20.89-2.7c-1.75-1.17-3.25-2.67-4.41-4.41C0,44.85,0,39.24,0,28Z"/>
  <path class="cls-1" d="M33.4,24v-.46h6.69v.46h-3.08v8.26h-.54v-8.26h-3.07ZM26.18,23.53h.62l2.76,3.84,2.82-3.84,3.84-4.87-6.31,9.11,3.25,4.48h-.65l-2.96-4.08-2.97,4.08h-.64l3.28-4.48-3.06-4.24ZM19.79,23.53h5.87v.46h-5.33v3.49h5.01v.46h-5.01v3.84h5.39v.46h-5.93v-8.72Z"/>
  <polygon class="cls-1" points="12.44 23.53 13.12 23.53 22.39 37.34 18.56 32.25 13.01 24.19 12.98 32.25 12.44 32.25 12.44 23.53"/>
  <path class="cls-1" d="M42.11,31.12c.02.34.3.55.72.55.45,0,.73-.23.73-.59,0-.28-.16-.44-.55-.53l-.21-.05c-.25-.06-.35-.13-.35-.27,0-.17.15-.28.39-.28s.37.11.4.28h.29c-.02-.32-.3-.54-.68-.54-.41,0-.69.22-.69.56,0,.28.16.44.5.52l.24.06c.25.06.36.14.36.29,0,.17-.17.29-.41.29-.25,0-.43-.11-.45-.29h-.29ZM40.56,31.14c0,.32.23.53.58.53.36,0,.58-.22.58-.6v-1.33h-.29v1.33c0,.21-.11.32-.29.32-.17,0-.28-.1-.29-.26h-.29ZM40.04,31.65c.11,0,.19-.08.19-.19s-.08-.19-.19-.19-.19.08-.19.19.08.19.19.19Z"/>
</svg>