<?xml version="1.0" encoding="UTF-8"?>
<svg id="Layer_1" xmlns="http://www.w3.org/2000/svg" viewBox="0 0 56 56">
  <defs>
    <style>
      .cls-1 {
        fill: #fff;
      }

      .cls-2 {
        fill: #8ec74e;
      }
    </style>
  </defs>
  <path class="cls-1" d="M0,28C0,16.76,0,11.15,2.7,7.11c1.17-1.75,2.67-3.25,4.41-4.41C11.15,0,16.76,0,28,0s16.85,0,20.89,2.7c1.75,1.17,3.25,2.67,4.41,4.41,2.7,4.04,2.7,9.65,2.7,20.89s0,16.85-2.7,20.89c-1.17,1.75-2.67,3.25-4.41,4.41-4.04,2.7-9.65,2.7-20.89,2.7s-16.85,0-20.89-2.7c-1.75-1.17-3.25-2.67-4.41-4.41C0,44.85,0,39.24,0,28Z"/>
  <path class="cls-2" d="M26.73,12.78c.77-.44,1.78-.44,2.55,0,3.88,2.19,7.76,4.38,11.63,6.57.73.41,1.22,1.22,1.21,2.06v13.18c0,.88-.53,1.71-1.3,2.11-3.86,2.18-7.73,4.36-11.59,6.54-.79.45-1.81.42-2.58-.07-1.16-.67-2.32-1.34-3.48-2.01-.24-.14-.5-.25-.67-.48.15-.2.41-.22.63-.31.48-.15.93-.4,1.37-.64.11-.08.25-.05.36.02.99.57,1.97,1.15,2.97,1.72.21.12.43-.04.61-.14,3.79-2.14,7.59-4.28,11.38-6.42.14-.07.22-.22.21-.37,0-4.35,0-8.7,0-13.05.02-.17-.08-.34-.24-.41-3.85-2.17-7.7-4.34-11.55-6.51-.07-.05-.15-.07-.23-.07s-.16.02-.23.07c-3.85,2.17-7.7,4.34-11.55,6.51-.16.07-.26.23-.24.4,0,4.35,0,8.7,0,13.05,0,.08,0,.15.05.22s.09.12.16.15c1.03.58,2.06,1.16,3.08,1.74.58.31,1.29.5,1.93.26.56-.2.96-.78.95-1.37,0-4.32,0-8.65,0-12.97-.01-.19.17-.35.35-.33.49,0,.99,0,1.48,0,.21,0,.35.2.32.4,0,4.35,0,8.7,0,13.05,0,1.16-.48,2.42-1.55,2.99-1.32.68-2.95.54-4.26-.12-1.13-.56-2.21-1.23-3.32-1.83-.77-.4-1.3-1.23-1.3-2.11v-13.18c0-.86.5-1.68,1.25-2.09,3.86-2.18,7.73-4.36,11.59-6.54Z"/>
  <path class="cls-2" d="M30.1,21.91c1.69-.11,3.49-.06,5.01.77,1.17.64,1.83,1.97,1.85,3.28-.03.18-.22.27-.38.26-.49,0-.98,0-1.47,0-.21,0-.33-.18-.35-.37-.14-.62-.48-1.24-1.07-1.54-.9-.45-1.95-.43-2.93-.42-.72.04-1.49.1-2.1.52-.47.32-.61.97-.44,1.49.16.37.59.49.94.6,2.03.53,4.18.48,6.18,1.18.82.29,1.63.84,1.91,1.7.37,1.16.21,2.54-.62,3.47-.67.76-1.64,1.18-2.61,1.41-1.29.29-2.63.3-3.94.17-1.23-.14-2.51-.46-3.47-1.3-.81-.71-1.21-1.81-1.17-2.87,0-.18.19-.3.36-.29.49,0,.98,0,1.48,0,.2-.01.34.16.35.34.09.59.31,1.22.83,1.57,1,.65,2.26.6,3.4.62.95-.04,2.02-.05,2.79-.68.41-.36.53-.96.42-1.47-.12-.43-.57-.64-.97-.77-2.01-.63-4.18-.4-6.17-1.12-.81-.28-1.59-.82-1.9-1.65-.43-1.17-.23-2.62.68-3.52.89-.89,2.17-1.24,3.39-1.36h0Z"/>
</svg>