<?xml version="1.0" encoding="UTF-8"?>
<svg id="Layer_1" xmlns="http://www.w3.org/2000/svg" viewBox="0 0 56.31 56">
  <defs>
    <style>
      .cls-1 {
        fill-rule: evenodd;
      }

      .cls-1, .cls-2 {
        fill: #70cff0;
      }

      .cls-3 {
        fill: #fff;
      }
    </style>
  </defs>
  <path class="cls-3" d="M0,28C0,16.76,0,11.15,2.7,7.11c1.17-1.75,2.67-3.25,4.41-4.41C11.15,0,16.82,0,28.16,0s17.01,0,21.05,2.7c1.75,1.17,3.25,2.67,4.41,4.41,2.7,4.04,2.7,9.65,2.7,20.89s0,16.85-2.7,20.89c-1.17,1.75-2.67,3.25-4.41,4.41-4.04,2.7-9.71,2.7-21.05,2.7s-17.01,0-21.05-2.7c-1.75-1.17-3.25-2.67-4.41-4.41C0,44.85,0,39.24,0,28Z"/>
  <path class="cls-2" d="M28.16,30.74c1.52,0,2.76-1.23,2.76-2.74s-1.23-2.74-2.76-2.74-2.76,1.23-2.76,2.74,1.23,2.74,2.76,2.74Z"/>
  <path class="cls-1" d="M17.34,23.09c2.82-1.07,6.64-1.71,10.82-1.71s8,.64,10.82,1.71c1.41.53,2.61,1.19,3.48,1.98.87.78,1.5,1.77,1.5,2.93s-.62,2.15-1.5,2.93c-.87.78-2.08,1.44-3.48,1.98-2.82,1.07-6.64,1.71-10.82,1.71s-8-.64-10.82-1.71c-1.41-.53-2.61-1.19-3.48-1.98-.87-.78-1.5-1.77-1.5-2.93s.62-2.15,1.5-2.93c.87-.78,2.08-1.44,3.48-1.98ZM15.19,26.56c-.63.56-.83,1.05-.83,1.44s.21.88.83,1.44c.63.56,1.59,1.11,2.86,1.6,2.54.96,6.11,1.58,10.11,1.58s7.57-.62,10.11-1.58c1.27-.48,2.23-1.03,2.86-1.6.63-.56.83-1.05.83-1.44s-.21-.88-.83-1.44c-.63-.56-1.59-1.11-2.86-1.6-2.54-.96-6.11-1.58-10.11-1.58s-7.57.62-10.11,1.58c-1.27.48-2.23,1.03-2.86,1.6Z"/>
  <path class="cls-1" d="M27.01,16.23c2.34,1.89,4.81,4.87,6.9,8.47,2.09,3.6,3.44,7.21,3.92,10.18.24,1.48.27,2.85.02,3.99-.25,1.14-.8,2.17-1.8,2.75-1.01.58-2.18.54-3.29.18-1.12-.36-2.3-1.07-3.47-2.01-2.34-1.89-4.81-4.87-6.9-8.47s-3.44-7.21-3.92-10.18c-.24-1.48-.27-2.85-.02-3.99.25-1.14.8-2.17,1.8-2.75,1.01-.58,2.18-.54,3.29-.18,1.12.36,2.3,1.07,3.47,2.01ZM22.94,16.11c-.8-.26-1.33-.19-1.68,0-.35.2-.67.62-.85,1.44-.18.82-.18,1.92.04,3.26.43,2.67,1.68,6.05,3.68,9.49,2,3.44,4.32,6.21,6.43,7.91,1.06.85,2.02,1.41,2.82,1.66.8.26,1.33.19,1.68,0,.35-.2.67-.62.85-1.44s.18-1.92-.04-3.26c-.43-2.67-1.68-6.05-3.68-9.49s-4.32-6.21-6.43-7.91c-1.06-.85-2.02-1.41-2.82-1.66Z"/>
  <path class="cls-1" d="M37.84,21.13c-.48,2.96-1.83,6.58-3.92,10.18-2.09,3.6-4.56,6.57-6.9,8.47-1.17.94-2.35,1.65-3.47,2.01-1.12.36-2.29.4-3.29-.18-1.01-.58-1.56-1.6-1.8-2.75s-.22-2.51.02-3.99c.48-2.96,1.83-6.58,3.92-10.18,2.09-3.6,4.56-6.57,6.9-8.47,1.17-.94,2.35-1.65,3.47-2.01,1.12-.36,2.29-.4,3.29.18,1.01.58,1.56,1.6,1.8,2.75s.22,2.51-.02,3.99ZM35.9,17.56c-.18-.82-.5-1.24-.85-1.44s-.88-.27-1.68,0c-.8.26-1.76.81-2.82,1.66-2.11,1.7-4.43,4.47-6.43,7.91s-3.25,6.83-3.68,9.49c-.22,1.34-.22,2.44-.04,3.26.18.82.5,1.24.85,1.44.35.2.88.27,1.68,0,.8-.26,1.76-.81,2.82-1.66,2.11-1.7,4.43-4.47,6.43-7.91s3.25-6.83,3.68-9.49c.22-1.34.22-2.44.04-3.26Z"/>
</svg>