<?xml version="1.0" encoding="UTF-8"?>
<svg id="Layer_1" xmlns="http://www.w3.org/2000/svg" viewBox="0 0 56 56">
  <defs>
    <style>
      .cls-1 {
        fill: #922726;
      }

      .cls-2 {
        fill: #fff;
      }

      .cls-3 {
        fill: #c7302c;
      }

      .cls-4 {
        fill: #9b2b29;
      }

      .cls-5 {
        fill: #621c1d;
      }
    </style>
  </defs>
  <path class="cls-2" d="M0,28C0,16.76,0,11.15,2.7,7.11c1.17-1.75,2.67-3.25,4.41-4.41C11.15,0,16.76,0,28,0s16.85,0,20.89,2.7c1.75,1.17,3.25,2.67,4.41,4.41,2.7,4.04,2.7,9.65,2.7,20.89s0,16.85-2.7,20.89c-1.17,1.75-2.67,3.25-4.41,4.41-4.04,2.7-9.65,2.7-20.89,2.7s-16.85,0-20.89-2.7c-1.75-1.17-3.25-2.67-4.41-4.41C0,44.85,0,39.24,0,28Z"/>
  <path class="cls-1" d="M42.34,35.18c-1.66.87-10.26,4.4-12.09,5.36-1.83.95-2.85.95-4.29.25-1.45-.69-10.6-4.39-12.25-5.18-.82-.39-1.26-.73-1.26-1.04v-3.14s11.92-2.59,13.84-3.28c1.92-.69,2.59-.72,4.23-.12,1.64.6,11.43,2.37,13.04,2.96v3.1c0,.31-.37.65-1.22,1.09"/>
  <path class="cls-3" d="M42.34,32.05c-1.66.86-10.26,4.4-12.09,5.36-1.83.95-2.85.95-4.29.25-1.45-.69-10.6-4.39-12.25-5.18-1.65-.79-1.68-1.33-.06-1.96,1.62-.63,10.72-4.21,12.65-4.9,1.92-.69,2.59-.72,4.23-.12,1.64.6,10.19,4,11.8,4.59,1.62.59,1.68,1.08.02,1.95"/>
  <path class="cls-1" d="M42.34,30.09c-1.66.87-10.26,4.4-12.09,5.36-1.83.95-2.85.95-4.29.25-1.45-.69-10.6-4.39-12.25-5.18-.82-.39-1.26-.73-1.26-1.04v-3.15s11.92-2.59,13.84-3.28c1.92-.69,2.59-.72,4.23-.12,1.64.6,11.43,2.37,13.04,2.96v3.1c0,.31-.37.65-1.22,1.09Z"/>
  <path class="cls-3" d="M42.34,26.96c-1.66.87-10.26,4.4-12.09,5.36-1.83.95-2.85.95-4.29.25-1.45-.69-10.6-4.39-12.25-5.18-1.65-.79-1.68-1.33-.06-1.96,1.62-.63,10.72-4.21,12.65-4.9,1.92-.69,2.59-.72,4.23-.12,1.64.6,10.19,4,11.8,4.59,1.62.59,1.68,1.08.02,1.95"/>
  <path class="cls-1" d="M42.34,24.81c-1.66.87-10.26,4.4-12.09,5.36-1.83.95-2.85.95-4.29.25-1.45-.69-10.6-4.39-12.25-5.18-.82-.39-1.26-.73-1.26-1.04v-3.15s11.92-2.59,13.84-3.28c1.92-.69,2.59-.72,4.23-.12,1.64.6,11.43,2.37,13.04,2.96v3.1c0,.31-.37.65-1.22,1.09Z"/>
  <path class="cls-3" d="M42.34,21.69c-1.66.87-10.26,4.4-12.09,5.36-1.83.95-2.85.95-4.29.25-1.45-.69-10.6-4.39-12.25-5.18-1.65-.79-1.68-1.33-.06-1.96,1.62-.63,10.72-4.2,12.65-4.9,1.92-.69,2.59-.71,4.23-.12,1.64.6,10.19,4,11.8,4.6,1.62.59,1.68,1.08.02,1.95"/>
  <path class="cls-2" d="M21.45,19.43c2.11,0,3.82.66,3.82,1.48s-1.71,1.48-3.82,1.48-3.82-.66-3.82-1.48,1.71-1.48,3.82-1.48ZM28.37,25.62l-4.99-2.07,7.15-1.1-2.16,3.17ZM31.8,18.63l-2.67.28-.6,1.44-.97-1.61-3.09-.28,2.3-.83-.69-1.28,2.16.84,2.03-.67-.55,1.32,2.07.78Z"/>
  <polyline class="cls-5" points="34.96 19.02 39.2 20.69 34.97 22.37 34.96 19.02"/>
  <polygon class="cls-4" points="30.28 20.87 34.96 19.02 34.97 22.37 34.51 22.55 30.28 20.87"/>
</svg>