<?xml version="1.0" encoding="UTF-8"?>
<svg id="Layer_1" data-name="Layer 1" xmlns="http://www.w3.org/2000/svg" viewBox="0 0 56.31 56">
  <defs>
    <style>
      .cls-1 {
        fill: #fff;
      }

      .cls-2 {
        fill: #6db344;
      }
    </style>
  </defs>
  <path class="cls-1" d="M0,28C0,16.76,0,11.15,2.7,7.11c1.17-1.75,2.67-3.25,4.41-4.41C11.15,0,16.82,0,28.16,0s17.01,0,21.05,2.7c1.75,1.17,3.25,2.67,4.41,4.41,2.7,4.04,2.7,9.65,2.7,20.89s0,16.85-2.7,20.89c-1.17,1.75-2.67,3.25-4.41,4.41-4.04,2.7-9.71,2.7-21.05,2.7s-17.01,0-21.05-2.7c-1.75-1.17-3.25-2.67-4.41-4.41C0,44.85,0,39.24,0,28Z"/>
  <g id="Layer_2" data-name="Layer 2">
    <g id="logos">
      <path class="cls-2" d="M40.97,14.23c-.43,1.04-.99,2.02-1.67,2.92-5.98-6.18-15.83-6.35-22.01-.37-6.18,5.98-6.35,15.83-.37,22.01.21.21.42.42.64.62l.58.51c6.57,5.54,16.38,4.7,21.91-1.86,2.12-2.52,3.39-5.65,3.62-8.93.45-3.92-.74-8.93-2.7-14.91ZM19.81,39.54c-.46.57-1.29.65-1.86.19-.57-.46-.65-1.29-.19-1.86.46-.57,1.29-.65,1.86-.19.55.47.64,1.29.19,1.86ZM40.88,34.89c-3.82,5.11-12.05,3.37-17.28,3.63,0,0-.93.06-1.86.19,0,0,.35-.16.8-.32,3.69-1.28,5.43-1.54,7.68-2.7,4.21-2.15,8.42-6.87,9.25-11.76-1.61,4.69-6.49,8.74-10.92,10.38-3.05,1.12-8.54,2.22-8.54,2.22l-.22-.13c-3.73-1.83-3.85-9.93,2.96-12.53,2.99-1.16,5.81-.51,9.06-1.28,3.44-.8,7.42-3.37,9.03-6.75,1.8,5.43,3.98,13.85.06,19.05Z"/>
    </g>
  </g>
</svg>