<?xml version="1.0" encoding="UTF-8"?>
<svg id="Layer_1" xmlns="http://www.w3.org/2000/svg" viewBox="0 0 56.31 56">
  <defs>
    <style>
      .cls-1 {
        fill: #010101;
      }

      .cls-2 {
        fill: #356892;
      }

      .cls-3 {
        fill: #fff;
      }
    </style>
  </defs>
  <path class="cls-3" d="M0,28C0,16.76,0,11.15,2.7,7.11c1.17-1.75,2.67-3.25,4.41-4.41C11.15,0,16.82,0,28.16,0s17.01,0,21.05,2.7c1.75,1.17,3.25,2.67,4.41,4.41,2.7,4.04,2.7,9.65,2.7,20.89s0,16.85-2.7,20.89c-1.17,1.75-2.67,3.25-4.41,4.41-4.04,2.7-9.71,2.7-21.05,2.7s-17.01,0-21.05-2.7c-1.75-1.17-3.25-2.67-4.41-4.41C0,44.85,0,39.24,0,28Z"/>
  <path class="cls-1" d="M43.21,31.08c-.18-.55-.66-.93-1.27-1.02-.29-.04-.62-.02-1.02.06-.69.14-1.2.19-1.57.21,1.4-2.36,2.54-5.05,3.2-7.59,1.06-4.1.49-5.97-.17-6.81-1.75-2.24-4.31-3.44-7.4-3.47-1.65-.02-3.09.3-3.85.54-.7-.12-1.46-.19-2.25-.21-1.49-.02-2.8.3-3.92.96-.62-.21-1.62-.5-2.77-.69-2.71-.44-4.89-.1-6.48,1.03-1.93,1.36-2.83,3.73-2.66,7.03.05,1.05.64,4.24,1.57,7.26.53,1.74,1.1,3.18,1.69,4.29.83,1.57,1.72,2.5,2.72,2.83.56.19,1.58.32,2.65-.57.14.16.32.33.56.48.31.19.68.35,1.05.44,1.34.33,2.6.25,3.68-.22,0,.19.01.37.02.53,0,.25.01.5.02.74.06,1.58.17,2.81.49,3.67.02.05.04.12.07.2.16.49.43,1.3,1.1,1.94.7.66,1.55.86,2.33.86.39,0,.76-.05,1.09-.12,1.16-.25,2.49-.63,3.44-1.98.9-1.28,1.34-3.22,1.42-6.26.01-.09.02-.17.03-.25l.02-.16.21.02h.05c1.19.06,2.63-.19,3.52-.61.7-.33,2.96-1.51,2.43-3.11"/>
  <path class="cls-2" d="M41.18,31.39c-3.52.72-3.77-.46-3.77-.46,3.72-5.51,5.28-12.49,3.93-14.2-3.66-4.67-10-2.46-10.11-2.4h-.03c-.7-.14-1.48-.22-2.35-.24-1.59-.03-2.8.42-3.72,1.11,0,0-11.31-4.65-10.78,5.84.11,2.23,3.21,16.88,6.9,12.46,1.35-1.62,2.65-2.99,2.65-2.99.65.43,1.42.65,2.24.57l.06-.05c-.02.2-.01.4.03.63-.95,1.06-.67,1.25-2.57,1.64-1.92.4-.79,1.1-.06,1.28.89.22,2.96.54,4.36-1.41l-.06.22c.37.3.63,1.94.59,3.42-.04,1.48-.07,2.5.22,3.3.29.8.59,2.59,3.09,2.05,2.09-.45,3.17-1.6,3.32-3.53.11-1.37.35-1.17.36-2.39l.19-.58c.22-1.86.04-2.46,1.32-2.18l.31.03c.95.04,2.19-.15,2.91-.49,1.57-.72,2.5-1.94.95-1.62h0"/>
  <path class="cls-3" d="M36.32,22.04c-.03-.22-.42-.28-.78-.23-.37.05-.72.22-.69.43.02.17.33.46.69.46.03,0,.06,0,.09,0,.24-.03.42-.19.5-.27.13-.13.2-.28.19-.38M25.8,22.03c-.32-.04-.61,0-.75.11-.08.06-.11.13-.11.18-.02.13.07.27.13.35.16.21.39.36.62.39.03,0,.07,0,.1,0,.38,0,.73-.3.76-.52.04-.28-.36-.46-.75-.51h0Z"/>
  <path class="cls-3" d="M40.02,32.57c-.5.23-1.35.41-2.15.45-.89.04-1.34-.1-1.44-.19-.05-1.02.33-1.13.73-1.24.06-.02.13-.04.18-.06.04.03.08.06.12.09.71.47,1.98.52,3.78.15h.02c-.24.22-.66.52-1.24.8ZM31.95,41.78c-1.93.41-2.62-.57-3.07-1.7-.29-.73-.43-4-.33-7.61,0-.05,0-.09-.02-.14-.01-.09-.03-.17-.05-.26-.15-.53-.52-.97-.96-1.15-.18-.07-.5-.21-.88-.11.08-.34.23-.72.38-1.14l.07-.17c.07-.2.17-.4.26-.62.53-1.16,1.24-2.76.46-6.36-.29-1.35-1.27-2.01-2.75-1.85-.89.09-1.7.45-2.1.65-.09.04-.17.09-.24.13.11-1.36.54-3.9,2.14-5.51,1.01-1.01,2.35-1.51,3.98-1.48,3.22.05,5.28,1.7,6.44,3.07,1,1.18,1.55,2.37,1.76,3.01-1.63-.17-2.74.16-3.3.96-1.22,1.74.67,5.12,1.58,6.75.17.3.31.56.36.66.3.72.68,1.19.96,1.54.09.11.17.21.23.3-.49.14-1.38.47-1.3,2.11-.07.82-.53,4.67-.76,6.03-.31,1.8-.97,2.47-2.84,2.87h0ZM23.68,34.11c-.24-.06-.46-.16-.58-.25.11-.05.29-.12.62-.18,1.58-.32,1.82-.55,2.36-1.23.12-.15.26-.33.45-.54h0c.29-.32.42-.27.65-.17.19.08.38.32.46.58.04.12.08.36-.06.55-1.11,1.55-2.74,1.53-3.9,1.24ZM23.55,29.63c-.77-.8-1.12-1.92-.96-3.07.23-1.61.14-3,.1-3.76,0-.11-.01-.2-.02-.27.36-.32,2.05-1.22,3.25-.95.55.13.88.5,1.02,1.14.72,3.32.1,4.7-.41,5.82-.1.23-.2.45-.28.67l-.06.17c-.16.44-.32.85-.41,1.23-.82,0-1.62-.35-2.23-.99h0ZM20.89,33.17c-.7.84-1.18.68-1.34.62-1.03-.34-2.23-2.52-3.29-5.98-.92-2.99-1.45-6-1.49-6.84-.13-2.67.51-4.53,1.93-5.53,2.3-1.63,6.08-.65,7.6-.16-.02.02-.04.04-.07.06-2.49,2.51-2.43,6.8-2.43,7.06,0,.1,0,.24.02.44.04.72.12,2.06-.09,3.58-.2,1.41.24,2.8,1.2,3.79.1.1.2.2.31.29-.43.46-1.36,1.46-2.34,2.65ZM35.04,14.15c2.53.06,4.53,1,5.94,2.8,1.09,1.38-.11,7.68-3.57,13.11-.03-.04-.07-.09-.11-.13l-.04-.05c.89-1.47.72-2.93.56-4.22-.06-.53-.12-1.03-.11-1.5.02-.5.08-.93.15-1.34.08-.51.16-1.04.14-1.66.02-.07.02-.14.01-.23-.06-.6-.74-2.38-2.13-3.99-.76-.88-1.87-1.87-3.39-2.54.65-.13,1.54-.26,2.54-.24ZM37.13,21.45c0,.43-.07.82-.13,1.23-.07.44-.14.89-.16,1.44-.02.54.05,1.09.11,1.63.13,1.09.27,2.21-.26,3.32-.09-.15-.16-.31-.23-.47-.06-.16-.21-.41-.4-.76-.76-1.36-2.53-4.53-1.62-5.83.27-.39.96-.78,2.68-.57ZM42.35,31.31c-.13-.41-.57-.54-1.29-.39-2.13.44-2.9.13-3.15-.05,1.66-2.52,3.02-5.56,3.76-8.41.35-1.35.54-2.6.56-3.61.02-1.12-.17-1.94-.57-2.44-1.59-2.02-3.92-3.11-6.74-3.14-1.94-.02-3.58.47-3.9.61-.67-.17-1.4-.27-2.19-.28-1.46-.02-2.71.32-3.76,1.03-.45-.17-1.62-.57-3.05-.8-2.47-.4-4.44-.1-5.84.89-1.67,1.18-2.45,3.3-2.3,6.28.05,1,.62,4.09,1.53,7.05,1.19,3.89,2.49,6.1,3.85,6.55.16.05.34.09.55.09.5,0,1.11-.22,1.74-.98.77-.93,1.57-1.83,2.4-2.71.54.29,1.12.45,1.73.46,0,.02,0,.03,0,.05-.1.12-.21.25-.3.38-.42.53-.5.64-1.85.91-.38.08-1.4.29-1.41,1-.02.78,1.2,1.1,1.34,1.14.48.12.95.18,1.39.18,1.08,0,2.03-.35,2.79-1.04-.02,2.76.09,5.49.42,6.32.27.68.94,2.34,3.04,2.34.31,0,.65-.04,1.02-.12,2.19-.47,3.15-1.44,3.52-3.57.2-1.14.54-3.86.7-5.32.34.1.77.15,1.24.15.98,0,2.1-.21,2.81-.53.79-.37,2.22-1.27,1.96-2.05Z"/>
</svg>