<?xml version="1.0" encoding="UTF-8"?>
<svg id="Layer_1" xmlns="http://www.w3.org/2000/svg" viewBox="0 0 56 56">
  <defs>
    <style>
      .cls-1 {
        fill: #00b6d4;
      }

      .cls-2 {
        fill: #fff;
      }
    </style>
  </defs>
  <path class="cls-2" d="M0,28C0,16.76,0,11.15,2.7,7.11c1.17-1.75,2.67-3.25,4.41-4.41C11.15,0,16.76,0,28,0s16.85,0,20.89,2.7c1.75,1.17,3.25,2.67,4.41,4.41,2.7,4.04,2.7,9.65,2.7,20.89s0,16.85-2.7,20.89c-1.17,1.75-2.67,3.25-4.41,4.41-4.04,2.7-9.65,2.7-20.89,2.7s-16.85,0-20.89-2.7c-1.75-1.17-3.25-2.67-4.41-4.41C0,44.85,0,39.24,0,28Z"/>
  <path class="cls-1" d="M20.22,28c-4.15,0-6.74,2.07-7.78,6.22,1.56-2.07,3.37-2.85,5.44-2.33,1.18.3,2.03,1.15,2.97,2.1,1.53,1.55,3.29,3.34,7.15,3.34,4.15,0,6.74-2.07,7.78-6.22-1.56,2.07-3.37,2.85-5.44,2.33-1.18-.3-2.03-1.15-2.97-2.1-1.53-1.55-3.29-3.34-7.15-3.34ZM28,18.67c-4.15,0-6.74,2.07-7.78,6.22,1.56-2.07,3.37-2.85,5.44-2.33,1.18.3,2.03,1.15,2.97,2.1,1.53,1.55,3.29,3.34,7.15,3.34,4.15,0,6.74-2.07,7.78-6.22-1.56,2.07-3.37,2.85-5.44,2.33-1.18-.3-2.03-1.15-2.97-2.1-1.53-1.55-3.29-3.34-7.15-3.34Z"/>
</svg>