<?xml version="1.0" encoding="UTF-8"?>
<svg id="Layer_1" xmlns="http://www.w3.org/2000/svg" viewBox="0 0 56 56">
  <defs>
    <style>
      .cls-1 {
        fill: #207abf;
      }

      .cls-2 {
        fill: #fff;
      }
    </style>
  </defs>
  <path class="cls-2" d="M0,28C0,16.76,0,11.15,2.7,7.11c1.17-1.75,2.67-3.25,4.41-4.41C11.15,0,16.76,0,28,0s16.85,0,20.89,2.7c1.75,1.17,3.25,2.67,4.41,4.41,2.7,4.04,2.7,9.65,2.7,20.89s0,16.85-2.7,20.89c-1.17,1.75-2.67,3.25-4.41,4.41-4.04,2.7-9.65,2.7-20.89,2.7s-16.85,0-20.89-2.7c-1.75-1.17-3.25-2.67-4.41-4.41C0,44.85,0,39.24,0,28Z"/>
  <rect class="cls-1" x="12.44" y="12.44" width="31.11" height="31.11"/>
  <path class="cls-2" d="M38.77,36.79c-.59.63-1.23.98-2.29,1.26-.46.13-.54.13-1.58.13-1.04,0-1.12,0-1.63-.14-1.31-.34-2.36-.99-3.08-1.92-.2-.26-.54-.81-.54-.88,0-.02.05-.06.11-.09.06-.03.19-.11.3-.17.11-.06.3-.18.43-.25s.51-.29.84-.49c.33-.2.63-.36.67-.36s.1.07.15.15c.29.49.97,1.12,1.45,1.33.3.13.95.27,1.27.27.29,0,.83-.13,1.11-.26.31-.14.46-.28.65-.56.13-.2.14-.25.14-.63,0-.35-.02-.45-.12-.61-.27-.45-.64-.68-2.14-1.34-1.55-.69-2.24-1.09-2.8-1.64-.42-.41-.5-.52-.76-1.03-.34-.66-.38-.87-.39-1.85,0-.69,0-.91.08-1.14.1-.35.43-1.03.58-1.2.31-.36.42-.48.64-.66.66-.54,1.69-.9,2.68-.94.11,0,.48.02.83.04.99.08,1.67.33,2.32.85.49.39,1.23,1.3,1.16,1.42-.05.07-1.99,1.37-2.11,1.4-.08.02-.13,0-.24-.13-.66-.79-.93-.96-1.57-1-.46-.03-.7.02-1.01.23-.32.21-.48.54-.48.99,0,.66.26.97,1.19,1.43.6.3,1.12.54,1.16.54.06,0,1.31.62,1.63.82,1.52.89,2.13,1.8,2.29,3.38.12,1.19-.22,2.27-.95,3.04ZM27.38,23.97h1.49v2.58h-4.03v11.46l-.11.03c-.15.04-2.07.04-2.48,0l-.33-.03v-11.46h-4.03v-2.58h1.28c.7-.02,2.5-.02,4-.01s3.39.01,4.22.01Z"/>
</svg>